<?xml version="1.0" encoding="utf-8"?>
<!-- Generator: Adobe Illustrator 16.0.0, SVG Export Plug-In . SVG Version: 6.00 Build 0)  -->
<!DOCTYPE svg PUBLIC "-//W3C//DTD SVG 1.1//EN" "http://www.w3.org/Graphics/SVG/1.1/DTD/svg11.dtd">
<svg version="1.1" id="Layer_1" xmlns="http://www.w3.org/2000/svg" xmlns:xlink="http://www.w3.org/1999/xlink" x="0px" y="0px"
	 width="1368px" height="936px" viewBox="0 0 1368 936" enable-background="new 0 0 1368 936" xml:space="preserve">
<g>
	<g>
		<path fill="#FF5729" d="M855.447,336.194c-4.244,16.778-10.905,32.617-19.577,47.105l19.62,47.344
			c-9.976,12.401-21.267,23.682-33.646,33.662l-47.37-19.618c-14.492,8.671-30.319,15.317-47.1,19.568l-19.587,47.305
			c-7.809,0.835-15.746,1.269-23.781,1.269c-8.039,0-15.974-0.434-23.787-1.28h-0.01l-19.586-47.293
			c-16.78-4.25-32.608-10.896-47.102-19.568l-47.353,19.618c-12.387-9.98-23.672-21.261-33.647-33.648l19.606-47.366
			c-8.669-14.492-15.318-30.32-19.567-47.098l-47.292-19.598c-0.847-7.802-1.28-15.741-1.28-23.777
			c0-8.034,0.433-15.981,1.28-23.794l47.496-19.678c3.85-16.083,9.681-33.281,17.474-51.562l56.44,24.018
			c-11.957,27.975-18.228,52.117-18.228,71.007c0,63.725,51.84,115.555,115.554,115.555c63.711,0,115.55-51.83,115.55-115.555
			c0-18.646-6.106-42.381-17.75-69.88l56.527-23.785c7.505,17.779,13.152,34.535,16.9,50.212l47.495,19.668
			c0.849,7.813,1.277,15.76,1.277,23.794c0,8.037-0.429,15.976-1.277,23.785L855.447,336.194z"/>
		<path fill="#FF5729" d="M768.914,292.809c0,46.824-38.096,84.916-84.912,84.916c-46.826,0-84.918-38.092-84.918-84.916
			c0-9.831,2.616-27.757,15.073-57.34c10.877-25.829,26.901-54.963,47.602-86.58c6.892-10.52,14.386-21.418,22.25-32.384
			c7.658,10.683,14.959,21.313,21.855,31.821c20.824,31.751,36.939,60.998,47.888,86.928
			C766.281,264.951,768.914,282.945,768.914,292.809z"/>
	</g>
	<g>
		<g>
			<path fill="#FF5729" d="M17,592.603h64.357c12.027,0,23.2,1.711,33.519,5.128c10.319,3.413,19.262,8.456,26.825,15.125
				c7.565,6.675,13.502,14.917,17.807,24.734c4.307,9.814,6.461,21.165,6.461,34.042c0,11.793-1.864,22.558-5.587,32.295
				c-3.725,9.737-9.155,18.078-16.295,25.02c-7.136,6.947-15.942,12.339-26.417,16.179c-10.476,3.841-22.463,5.758-35.963,5.758H17
				V592.603z M80.777,719.229c15.672,0,27.641-4.051,35.903-12.162c8.262-8.104,12.396-19.762,12.396-34.973
				c0-7.291-0.99-13.885-2.969-19.783c-1.978-5.898-4.965-10.921-8.961-15.07c-3.997-4.149-9.019-7.351-15.073-9.6
				c-6.05-2.252-13.15-3.378-21.296-3.378H53.892v94.966H80.777z"/>
			<path fill="#FF5729" d="M218.715,671.514c0-7.684,1.026-15.05,3.082-22.115c2.055-7.058,4.964-13.675,8.729-19.839
				c3.761-6.171,8.262-11.759,13.501-16.763c5.237-5.003,11.057-9.308,17.457-12.915c6.402-3.609,13.284-6.384,20.659-8.324
				c7.367-1.939,15.049-2.91,23.045-2.91c7.911,0,15.555,0.971,22.927,2.91c7.366,1.94,14.272,4.715,20.713,8.324
				c6.438,3.607,12.298,7.912,17.575,12.915c5.274,5.004,9.793,10.592,13.56,16.763c3.761,6.164,6.67,12.781,8.729,19.839
				c2.055,7.065,3.082,14.432,3.082,22.115c0,7.683-1.027,15.053-3.082,22.114c-2.058,7.06-4.968,13.673-8.729,19.84
				c-3.767,6.172-8.286,11.777-13.56,16.82c-5.276,5.04-11.136,9.347-17.575,12.915c-6.44,3.572-13.347,6.342-20.713,8.322
				c-7.372,1.98-15.016,2.969-22.927,2.969c-7.996,0-15.678-0.988-23.045-2.969c-7.375-1.98-14.257-4.75-20.659-8.322
				c-6.4-3.568-12.22-7.875-17.457-12.915c-5.239-5.043-9.74-10.648-13.501-16.82c-3.765-6.167-6.674-12.78-8.729-19.84
				C219.742,686.566,218.715,679.196,218.715,671.514z M255.489,671.632c0,7.293,1.299,14.062,3.901,20.306
				c2.595,6.248,6.147,11.661,10.649,16.233c4.497,4.582,9.775,8.172,15.826,10.767c6.054,2.605,12.492,3.902,19.324,3.902
				c6.98,0,13.499-1.297,19.549-3.902c6.052-2.595,11.306-6.185,15.771-10.767c4.461-4.572,7.988-9.985,10.592-16.233
				c2.597-6.244,3.896-13.013,3.896-20.306s-1.3-14.065-3.896-20.31c-2.604-6.246-6.131-11.657-10.592-16.233
				c-4.464-4.578-9.719-8.168-15.771-10.769c-6.05-2.6-12.569-3.896-19.549-3.896c-6.832,0-13.27,1.297-19.324,3.896
				c-6.051,2.601-11.329,6.19-15.826,10.769c-4.502,4.576-8.054,9.987-10.649,16.233
				C256.789,657.566,255.489,664.339,255.489,671.632z"/>
			<path fill="#FF5729" d="M476.172,624.263h-44.225v-31.66h125.23v31.66h-44.226v126.62h-36.779V624.263z"/>
			<path fill="#FF5729" d="M609.807,592.603h64.359c12.024,0,23.2,1.711,33.515,5.128c10.317,3.413,19.261,8.456,26.825,15.125
				c7.57,6.675,13.504,14.917,17.813,24.734c4.305,9.814,6.458,21.165,6.458,34.042c0,11.793-1.862,22.558-5.59,32.295
				c-3.723,9.737-9.155,18.078-16.292,25.02c-7.14,6.947-15.94,12.339-26.42,16.179c-10.473,3.841-22.462,5.758-35.961,5.758
				h-64.707V592.603z M673.581,719.229c15.675,0,27.646-4.051,35.902-12.162c8.27-8.104,12.401-19.762,12.401-34.973
				c0-7.291-0.99-13.885-2.973-19.783c-1.975-5.898-4.961-10.921-8.959-15.07c-3.995-4.149-9.019-7.351-15.074-9.6
				c-6.048-2.252-13.146-3.378-21.298-3.378h-26.883v94.966H673.581z"/>
			<path fill="#FF5729" d="M877.741,699.331h-23.507v51.552h-36.9v-158.28h69.37c8.3,0,15.94,1.305,22.926,3.902
				c6.986,2.601,13.013,6.248,18.096,10.939c5.083,4.696,9.042,10.319,11.871,16.876c2.835,6.558,4.25,13.832,4.25,21.822
				c0,5.588-0.698,10.846-2.097,15.771c-1.394,4.924-3.37,9.409-5.936,13.439c-2.559,4.037-5.659,7.605-9.31,10.704
				c-3.646,3.108-7.72,5.707-12.219,7.802l33.401,57.023h-42.362L877.741,699.331z M885.191,667.673c3.026,0,5.854-0.524,8.498-1.57
				c2.633-1.047,4.943-2.501,6.92-4.365c1.975-1.862,3.532-4.11,4.656-6.751c1.122-2.633,1.689-5.588,1.689-8.844
				c0-3.181-0.567-6.11-1.689-8.788c-1.124-2.676-2.682-4.984-4.656-6.924c-1.977-1.939-4.287-3.45-6.92-4.541
				c-2.645-1.086-5.472-1.627-8.498-1.627h-30.957v43.41H885.191z"/>
			<path fill="#FF5729" d="M994.381,671.514c0-7.684,1.025-15.05,3.088-22.115c2.05-7.058,4.957-13.675,8.729-19.839
				c3.757-6.171,8.255-11.759,13.494-16.763c5.234-5.003,11.056-9.308,17.457-12.915c6.399-3.609,13.286-6.384,20.658-8.324
				c7.374-1.939,15.056-2.91,23.049-2.91c7.91,0,15.553,0.971,22.919,2.91c7.378,1.94,14.276,4.715,20.719,8.324
				c6.446,3.607,12.294,7.912,17.577,12.915c5.277,5.004,9.794,10.592,13.555,16.763c3.765,6.164,6.673,12.781,8.729,19.839
				c2.052,7.065,3.087,14.432,3.087,22.115c0,7.683-1.035,15.053-3.087,22.114c-2.057,7.06-4.965,13.673-8.729,19.84
				c-3.761,6.172-8.277,11.777-13.555,16.82c-5.283,5.04-11.131,9.347-17.577,12.915c-6.442,3.572-13.341,6.342-20.719,8.322
				c-7.366,1.98-15.009,2.969-22.919,2.969c-7.993,0-15.675-0.988-23.049-2.969c-7.372-1.98-14.259-4.75-20.658-8.322
				c-6.401-3.568-12.223-7.875-17.457-12.915c-5.239-5.043-9.737-10.648-13.494-16.82c-3.772-6.167-6.68-12.78-8.729-19.84
				C995.406,686.566,994.381,679.196,994.381,671.514z M1031.155,671.632c0,7.293,1.301,14.062,3.898,20.306
				c2.601,6.248,6.146,11.661,10.652,16.233c4.496,4.582,9.773,8.172,15.825,10.767c6.057,2.605,12.491,3.902,19.325,3.902
				c6.979,0,13.498-1.297,19.546-3.902c6.055-2.595,11.309-6.185,15.773-10.767c4.459-4.572,7.984-9.985,10.592-16.233
				c2.596-6.244,3.893-13.013,3.893-20.306s-1.297-14.065-3.893-20.31c-2.607-6.246-6.133-11.657-10.592-16.233
				c-4.465-4.578-9.719-8.168-15.773-10.769c-6.048-2.6-12.567-3.896-19.546-3.896c-6.834,0-13.269,1.297-19.325,3.896
				c-6.052,2.601-11.329,6.19-15.825,10.769c-4.507,4.576-8.052,9.987-10.652,16.233
				C1032.456,657.566,1031.155,664.339,1031.155,671.632z"/>
			<path fill="#FF5729" d="M1262.428,702.355v48.527h-36.891v-158.28h68.315c8.309,0,15.952,1.381,22.931,4.136
				s13.013,6.574,18.09,11.465c5.083,4.886,9.04,10.685,11.879,17.397c2.829,6.712,4.248,14.064,4.248,22.055
				c0,8.069-1.395,15.461-4.193,22.169c-2.793,6.716-6.689,12.477-11.695,17.286c-5.003,4.812-10.979,8.553-17.923,11.229
				c-6.944,2.677-14.528,4.017-22.747,4.017H1262.428z M1292.338,670.702c3.027,0,5.86-0.604,8.497-1.808
				c2.635-1.2,4.949-2.831,6.928-4.89c1.979-2.052,3.529-4.478,4.653-7.273c1.125-2.792,1.691-5.818,1.691-9.076
				c0-3.179-0.566-6.187-1.691-9.021c-1.124-2.828-2.675-5.312-4.653-7.447c-1.979-2.132-4.293-3.819-6.928-5.061
				c-2.637-1.24-5.47-1.863-8.497-1.863h-29.91v46.439H1292.338z"/>
		</g>
		<g>
			<path fill="#FF5729" d="M22.342,806.096c0,0.67,0.157,1.293,0.469,1.88c0.316,0.582,0.761,1.091,1.334,1.52
				c0.569,0.438,1.258,0.779,2.06,1.027c0.8,0.253,1.684,0.375,2.658,0.375c2.316,0,4.02-0.365,5.106-1.101
				c1.087-0.73,1.63-1.775,1.63-3.122c0-0.829-0.186-1.501-0.557-2.02c-0.372-0.521-0.899-0.961-1.578-1.307
				c-0.68-0.359-1.493-0.66-2.434-0.901c-0.944-0.244-1.983-0.493-3.114-0.749c-0.612-0.126-1.28-0.269-2.001-0.416
				c-0.724-0.147-1.454-0.344-2.19-0.584c-0.739-0.245-1.448-0.54-2.135-0.89c-0.687-0.346-1.289-0.776-1.812-1.301
				c-0.522-0.517-0.942-1.128-1.266-1.829c-0.324-0.712-0.482-1.541-0.482-2.508c0-1.324,0.213-2.54,0.642-3.652
				c0.429-1.109,1.109-2.063,2.04-2.856c0.929-0.8,2.123-1.423,3.581-1.87c1.459-0.446,3.218-0.669,5.278-0.669
				c1.644,0,3.107,0.209,4.388,0.629c1.279,0.417,2.363,1.01,3.25,1.778c0.883,0.771,1.561,1.691,2.026,2.767
				c0.465,1.072,0.697,2.262,0.697,3.574H34.57c0-0.588-0.117-1.126-0.346-1.621c-0.227-0.503-0.567-0.934-1.016-1.307
				c-0.452-0.361-1.019-0.658-1.708-0.87c-0.687-0.213-1.482-0.322-2.403-0.322c-1.128,0-2.064,0.115-2.798,0.342
				c-0.737,0.231-1.323,0.524-1.761,0.882c-0.436,0.369-0.737,0.784-0.914,1.254c-0.168,0.467-0.252,0.946-0.252,1.434
				c0,0.637,0.176,1.178,0.535,1.623c0.358,0.452,0.85,0.829,1.479,1.136c0.627,0.305,1.376,0.558,2.242,0.753
				c0.865,0.206,1.813,0.377,2.844,0.513c1.383,0.299,2.716,0.645,3.989,1.035c1.271,0.394,2.393,0.918,3.358,1.582
				c0.968,0.658,1.739,1.499,2.318,2.517c0.579,1.016,0.869,2.301,0.869,3.854c0,1.403-0.301,2.657-0.891,3.757
				c-0.595,1.089-1.425,2.01-2.502,2.761c-1.071,0.745-2.358,1.313-3.861,1.705c-1.499,0.392-3.167,0.584-5,0.584
				c-2.012,0-3.762-0.275-5.244-0.827c-1.479-0.554-2.703-1.279-3.668-2.171c-0.964-0.891-1.681-1.889-2.147-3.005
				C17.23,808.361,17,807.237,17,806.096H22.342z"/>
			<path fill="#FF5729" d="M67.194,809.298H53.743l-2.298,5.523h-5.641l12.141-29.038h5.065l12.146,29.038h-5.667L67.194,809.298z
				 M55.628,804.73h9.653l-4.632-11.201l-0.171-0.747h-0.021l-0.175,0.747L55.628,804.73z"/>
			<path fill="#FF5729" d="M97.326,785.783h5.641l-12.247,29.038h-4.849l-12.25-29.038h5.641l9.012,21.934h0.042L97.326,785.783z"/>
			<path fill="#FF5729" d="M109.397,785.808h19.996v4.604h-14.655v7.769h12.661v4.566h-12.661v7.487h14.851v4.588h-20.191V785.808z"
				/>
			<path fill="#FF5729" d="M174.922,785.808l-11.503,17.962v11.052h-5.339v-11.028l-11.501-17.985h6.245l7.895,13.12h0.062
				l7.877-13.12H174.922z"/>
			<path fill="#FF5729" d="M176.779,800.272c0-1.411,0.188-2.763,0.568-4.052c0.38-1.299,0.91-2.509,1.588-3.633
				c0.678-1.124,1.503-2.146,2.469-3.058c0.967-0.917,2.027-1.709,3.195-2.359c1.166-0.658,2.418-1.157,3.763-1.515
				c1.345-0.355,2.75-0.533,4.208-0.533c1.442,0,2.842,0.178,4.194,0.533c1.351,0.357,2.608,0.856,3.774,1.515
				c1.167,0.65,2.234,1.442,3.199,2.359c0.962,0.912,1.789,1.934,2.477,3.058c0.687,1.124,1.219,2.334,1.598,3.633
				c0.375,1.289,0.57,2.641,0.57,4.052c0,1.41-0.194,2.756-0.57,4.055c-0.379,1.291-0.912,2.499-1.598,3.625
				c-0.688,1.124-1.515,2.146-2.477,3.063c-0.965,0.915-2.032,1.703-3.199,2.365c-1.166,0.662-2.423,1.173-3.774,1.528
				c-1.352,0.353-2.751,0.531-4.194,0.531c-1.458,0-2.863-0.179-4.208-0.531c-1.345-0.355-2.597-0.866-3.763-1.528
				c-1.168-0.662-2.228-1.45-3.195-2.365c-0.966-0.918-1.791-1.939-2.469-3.063c-0.678-1.126-1.208-2.334-1.588-3.625
				C176.967,803.028,176.779,801.683,176.779,800.272z M182.119,800.294c0,1.493,0.275,2.882,0.825,4.167
				c0.552,1.287,1.302,2.405,2.242,3.354c0.945,0.947,2.053,1.687,3.318,2.229c1.268,0.542,2.621,0.81,4.064,0.81
				c1.458,0,2.825-0.268,4.097-0.81s2.379-1.281,3.327-2.229c0.942-0.948,1.685-2.066,2.232-3.354
				c0.542-1.285,0.813-2.674,0.813-4.167c0-1.499-0.272-2.889-0.813-4.184c-0.547-1.293-1.29-2.414-2.232-3.359
				c-0.948-0.945-2.055-1.688-3.327-2.232c-1.272-0.538-2.639-0.81-4.097-0.81c-1.443,0-2.796,0.271-4.064,0.81
				c-1.266,0.545-2.374,1.287-3.318,2.232c-0.94,0.945-1.69,2.066-2.242,3.359C182.395,797.405,182.119,798.795,182.119,800.294z"/>
			<path fill="#FF5729" d="M235.337,785.808h5.342v17.793c0,1.734-0.301,3.326-0.9,4.782c-0.604,1.45-1.449,2.697-2.544,3.751
				c-1.093,1.053-2.405,1.872-3.933,2.454c-1.534,0.585-3.23,0.874-5.086,0.874c-1.759,0-3.396-0.275-4.914-0.831
				c-1.517-0.553-2.835-1.344-3.959-2.37c-1.122-1.023-2.002-2.265-2.637-3.732c-0.637-1.464-0.956-3.11-0.956-4.928v-17.793h5.322
				v17.793c0,1.023,0.156,1.975,0.472,2.858c0.313,0.883,0.77,1.654,1.371,2.313c0.602,0.664,1.346,1.185,2.232,1.559
				c0.887,0.381,1.91,0.567,3.069,0.567c1.115,0,2.115-0.187,3.003-0.567c0.885-0.374,1.631-0.885,2.24-1.535
				c0.608-0.646,1.073-1.414,1.397-2.293c0.317-0.884,0.48-1.833,0.48-2.858V785.808z"/>
			<path fill="#FF5729" d="M260.88,804.73h-6.176v10.091h-5.344v-29.014h12.594c1.475,0,2.829,0.222,4.067,0.68
				c1.235,0.454,2.306,1.1,3.206,1.929c0.903,0.832,1.601,1.834,2.101,3.001c0.503,1.167,0.752,2.454,0.752,3.866
				c0,1.05-0.135,2.03-0.407,2.945c-0.273,0.922-0.663,1.749-1.17,2.487c-0.509,0.743-1.124,1.392-1.846,1.945
				c-0.723,0.556-1.526,1-2.411,1.344l6.498,10.816h-6.135L260.88,804.73z M261.779,800.146c0.703,0,1.355-0.124,1.955-0.354
				c0.6-0.238,1.123-0.563,1.564-0.982c0.443-0.419,0.796-0.93,1.053-1.527c0.258-0.599,0.389-1.261,0.389-1.984
				c0-0.725-0.13-1.385-0.389-1.98c-0.257-0.599-0.61-1.115-1.053-1.55c-0.441-0.437-0.969-0.771-1.586-1.01
				c-0.612-0.25-1.271-0.366-1.974-0.366h-7.034v9.754H261.779z"/>
			<path fill="#FF5729" d="M291.928,785.808h11.33c2.217,0,4.266,0.314,6.157,0.948c1.889,0.635,3.519,1.564,4.889,2.796
				c1.377,1.229,2.45,2.747,3.233,4.541c0.775,1.798,1.168,3.868,1.168,6.201c0,2.163-0.338,4.136-1.009,5.918
				c-0.671,1.79-1.661,3.316-2.973,4.589c-1.309,1.273-2.919,2.26-4.826,2.965c-1.908,0.702-4.095,1.056-6.555,1.056h-11.415
				V785.808z M303.171,810.233c1.628,0,3.082-0.228,4.34-0.672c1.27-0.448,2.336-1.095,3.203-1.939
				c0.865-0.847,1.519-1.88,1.957-3.093c0.446-1.218,0.669-2.601,0.669-4.151c0-1.491-0.209-2.854-0.621-4.077
				c-0.417-1.226-1.044-2.272-1.889-3.146c-0.847-0.876-1.9-1.556-3.175-2.039c-1.273-0.481-2.77-0.724-4.484-0.724h-5.881v19.841
				H303.171z"/>
			<path fill="#FF5729" d="M325.413,800.272c0-1.411,0.185-2.763,0.564-4.052c0.38-1.299,0.907-2.509,1.588-3.633
				c0.678-1.124,1.503-2.146,2.471-3.058c0.962-0.917,2.027-1.709,3.195-2.359c1.165-0.658,2.419-1.157,3.765-1.515
				c1.345-0.355,2.743-0.533,4.205-0.533c1.444,0,2.843,0.178,4.195,0.533c1.35,0.357,2.608,0.856,3.773,1.515
				c1.166,0.65,2.23,1.442,3.199,2.359c0.969,0.912,1.791,1.934,2.478,3.058c0.687,1.124,1.216,2.334,1.597,3.633
				c0.38,1.289,0.571,2.641,0.571,4.052c0,1.41-0.19,2.756-0.571,4.055c-0.381,1.291-0.911,2.499-1.597,3.625
				c-0.687,1.124-1.508,2.146-2.478,3.063c-0.969,0.915-2.033,1.703-3.199,2.365c-1.165,0.662-2.424,1.173-3.773,1.528
				c-1.352,0.353-2.75,0.531-4.195,0.531c-1.462,0-2.86-0.179-4.205-0.531c-1.346-0.355-2.6-0.866-3.765-1.528
				c-1.168-0.662-2.233-1.45-3.195-2.365c-0.967-0.918-1.792-1.939-2.471-3.063c-0.682-1.126-1.208-2.334-1.588-3.625
				C325.598,803.028,325.413,801.683,325.413,800.272z M330.753,800.294c0,1.493,0.275,2.882,0.824,4.167
				c0.549,1.287,1.301,2.405,2.244,3.354c0.94,0.947,2.048,1.687,3.314,2.229c1.265,0.542,2.621,0.81,4.065,0.81
				c1.456,0,2.821-0.268,4.1-0.81c1.27-0.542,2.38-1.281,3.323-2.229c0.945-0.948,1.691-2.066,2.231-3.354
				c0.544-1.285,0.814-2.674,0.814-4.167c0-1.499-0.27-2.889-0.814-4.184c-0.54-1.293-1.286-2.414-2.231-3.359
				c-0.943-0.945-2.053-1.688-3.323-2.232c-1.278-0.538-2.644-0.81-4.1-0.81c-1.444,0-2.8,0.271-4.065,0.81
				c-1.266,0.545-2.374,1.287-3.314,2.232c-0.943,0.945-1.694,2.066-2.244,3.359C331.028,797.405,330.753,798.795,330.753,800.294z"
				/>
			<path fill="#FF5729" d="M369.832,790.393h-8.667v-4.585h22.701v4.585h-8.692v24.429h-5.342V790.393z"/>
			<path fill="#FF5729" d="M390.716,785.808h20v4.604h-14.655v8.621h12.656v4.588h-12.656v11.201h-5.344V785.808z"/>
			<path fill="#FF5729" d="M417.87,785.808h5.344v29.014h-5.344V785.808z"/>
			<path fill="#FF5729" d="M432.366,785.808h5.34v24.426h13.171v4.588h-18.511V785.808z"/>
			<path fill="#FF5729" d="M457.95,785.808h19.996v4.604h-14.652v7.769h12.655v4.566h-12.655v7.487h14.844v4.588H457.95V785.808z"/>
			<path fill="#FF5729" d="M489.241,806.096c0,0.67,0.161,1.293,0.476,1.88c0.312,0.582,0.756,1.091,1.329,1.52
				c0.571,0.438,1.255,0.779,2.058,1.027c0.807,0.253,1.689,0.375,2.665,0.375c2.316,0,4.019-0.365,5.102-1.101
				c1.084-0.73,1.635-1.775,1.635-3.122c0-0.829-0.192-1.501-0.557-2.02c-0.375-0.521-0.899-0.961-1.583-1.307
				c-0.675-0.359-1.486-0.66-2.431-0.901c-0.95-0.244-1.984-0.493-3.115-0.749c-0.612-0.126-1.28-0.269-2.006-0.416
				c-0.719-0.147-1.452-0.344-2.188-0.584c-0.729-0.245-1.444-0.54-2.132-0.89c-0.688-0.346-1.292-0.776-1.813-1.301
				c-0.52-0.517-0.945-1.128-1.266-1.829c-0.321-0.712-0.482-1.541-0.482-2.508c0-1.324,0.212-2.54,0.644-3.652
				c0.427-1.109,1.11-2.063,2.036-2.856c0.935-0.8,2.128-1.423,3.587-1.87c1.458-0.446,3.221-0.669,5.278-0.669
				c1.64,0,3.106,0.209,4.387,0.629c1.272,0.417,2.362,1.01,3.25,1.778c0.883,0.771,1.56,1.691,2.026,2.767
				c0.467,1.072,0.695,2.262,0.695,3.574h-5.362c0-0.588-0.117-1.126-0.345-1.621c-0.228-0.503-0.564-0.934-1.018-1.307
				c-0.444-0.361-1.019-0.658-1.702-0.87c-0.689-0.213-1.49-0.322-2.409-0.322c-1.125,0-2.061,0.115-2.796,0.342
				c-0.743,0.231-1.325,0.524-1.761,0.882c-0.434,0.369-0.739,0.784-0.907,1.254c-0.175,0.467-0.266,0.946-0.266,1.434
				c0,0.637,0.185,1.178,0.538,1.623c0.361,0.452,0.853,0.829,1.48,1.136c0.632,0.305,1.38,0.558,2.248,0.753
				c0.863,0.206,1.815,0.377,2.842,0.513c1.385,0.299,2.72,0.645,3.99,1.035c1.271,0.394,2.391,0.918,3.354,1.582
				c0.965,0.658,1.736,1.499,2.318,2.517c0.577,1.016,0.869,2.301,0.869,3.854c0,1.403-0.298,2.657-0.893,3.757
				c-0.591,1.089-1.424,2.01-2.498,2.761c-1.071,0.745-2.363,1.313-3.862,1.705c-1.498,0.392-3.168,0.584-4.996,0.584
				c-2.019,0-3.763-0.275-5.249-0.827c-1.475-0.554-2.701-1.279-3.667-2.171c-0.969-0.891-1.68-1.889-2.146-3.005
				c-0.464-1.117-0.697-2.241-0.697-3.383H489.241z"/>
			<path fill="#FF5729" d="M526.774,800.272c0-1.411,0.184-2.763,0.566-4.052c0.378-1.299,0.907-2.509,1.584-3.633
				c0.683-1.124,1.508-2.146,2.469-3.058c0.962-0.917,2.03-1.709,3.201-2.359c1.159-0.658,2.416-1.157,3.758-1.515
				c1.345-0.355,2.749-0.533,4.209-0.533c1.448,0,2.841,0.178,4.192,0.533c1.354,0.357,2.612,0.856,3.774,1.515
				c1.168,0.65,2.229,1.442,3.201,2.359c0.967,0.912,1.787,1.934,2.476,3.058c0.687,1.124,1.221,2.334,1.601,3.633
				c0.372,1.289,0.567,2.641,0.567,4.052c0,1.41-0.195,2.756-0.567,4.055c-0.379,1.291-0.914,2.499-1.601,3.625
				c-0.688,1.124-1.509,2.146-2.476,3.063c-0.971,0.915-2.033,1.703-3.201,2.365c-1.162,0.662-2.42,1.173-3.774,1.528
				c-1.352,0.353-2.745,0.531-4.192,0.531c-1.46,0-2.864-0.179-4.209-0.531c-1.343-0.355-2.599-0.866-3.758-1.528
				c-1.17-0.662-2.239-1.45-3.201-2.365c-0.961-0.918-1.786-1.939-2.469-3.063c-0.678-1.126-1.207-2.334-1.584-3.625
				C526.958,803.028,526.774,801.683,526.774,800.272z M532.108,800.294c0,1.493,0.281,2.882,0.825,4.167
				c0.553,1.287,1.303,2.405,2.247,3.354c0.946,0.947,2.049,1.687,3.316,2.229c1.266,0.542,2.617,0.81,4.065,0.81
				c1.458,0,2.827-0.268,4.097-0.81c1.272-0.542,2.378-1.281,3.323-2.229c0.947-0.948,1.688-2.066,2.234-3.354
				c0.542-1.285,0.818-2.674,0.818-4.167c0-1.499-0.277-2.889-0.818-4.184c-0.546-1.293-1.287-2.414-2.234-3.359
				c-0.944-0.945-2.05-1.688-3.323-2.232c-1.27-0.538-2.639-0.81-4.097-0.81c-1.448,0-2.8,0.271-4.065,0.81
				c-1.267,0.545-2.371,1.287-3.316,2.232c-0.943,0.945-1.694,2.066-2.247,3.359C532.389,797.405,532.108,798.795,532.108,800.294z"
				/>
			<path fill="#FF5729" d="M592.071,814.821h-4.599l-15.872-19.823v19.823h-5.343v-29.014h4.586l15.907,19.814v-19.814h5.32V814.821
				z"/>
			<path fill="#FF5729" d="M625.094,795.747c-0.383-0.955-0.898-1.8-1.538-2.552c-0.644-0.743-1.375-1.376-2.199-1.895
				c-0.825-0.521-1.714-0.92-2.671-1.185c-0.957-0.268-1.941-0.407-2.943-0.407c-1.444,0-2.798,0.271-4.067,0.81
				c-1.263,0.545-2.367,1.287-3.308,2.232c-0.949,0.945-1.698,2.066-2.245,3.359c-0.555,1.295-0.825,2.685-0.825,4.184
				c0,1.493,0.27,2.882,0.825,4.167c0.547,1.287,1.296,2.405,2.245,3.354c0.941,0.947,2.044,1.687,3.308,2.229
				c1.27,0.542,2.623,0.81,4.067,0.81c1.002,0,1.982-0.132,2.927-0.39c0.951-0.269,1.842-0.656,2.659-1.165
				c0.825-0.517,1.557-1.144,2.197-1.89c0.649-0.743,1.166-1.596,1.552-2.551h5.491c-0.469,1.706-1.219,3.221-2.249,4.533
				c-1.019,1.32-2.203,2.423-3.557,3.318c-1.349,0.896-2.807,1.576-4.362,2.037c-1.562,0.464-3.113,0.694-4.659,0.694
				c-1.457,0-2.858-0.179-4.203-0.531c-1.347-0.355-2.6-0.866-3.77-1.528c-1.166-0.662-2.227-1.45-3.194-2.365
				c-0.969-0.918-1.788-1.939-2.472-3.063c-0.672-1.126-1.201-2.334-1.583-3.625c-0.378-1.299-0.569-2.645-0.569-4.055
				c0-1.411,0.19-2.763,0.569-4.052c0.383-1.299,0.912-2.509,1.583-3.633c0.684-1.124,1.503-2.146,2.472-3.058
				c0.967-0.917,2.028-1.709,3.194-2.359c1.17-0.658,2.422-1.157,3.77-1.515c1.345-0.355,2.746-0.533,4.203-0.533
				c1.546,0,3.097,0.223,4.659,0.669c1.555,0.447,3.013,1.121,4.362,2.008c1.354,0.886,2.538,1.998,3.557,3.326
				c1.029,1.334,1.78,2.882,2.249,4.643L625.094,795.747z"/>
			<path fill="#FF5729" d="M638.758,785.808h19.994v4.604h-14.653v7.769h12.657v4.566h-12.657v7.487h14.842v4.588h-20.183V785.808z"
				/>
			<path fill="#FF5729" d="M679.116,810.639h5.064l-3.741,8.856h-3.861L679.116,810.639z"/>
			<path fill="#FF5729" d="M705.076,785.808h11.331c2.218,0,4.266,0.314,6.149,0.948c1.893,0.635,3.521,1.564,4.898,2.796
				c1.371,1.229,2.45,2.747,3.225,4.541c0.775,1.798,1.173,3.868,1.173,6.201c0,2.163-0.342,4.136-1.014,5.918
				c-0.667,1.79-1.659,3.316-2.965,4.589c-1.313,1.273-2.918,2.26-4.83,2.965c-1.907,0.702-4.093,1.056-6.553,1.056h-11.415V785.808
				z M716.324,810.233c1.627,0,3.069-0.228,4.339-0.672c1.267-0.448,2.328-1.095,3.198-1.939c0.86-0.847,1.519-1.88,1.957-3.093
				c0.446-1.218,0.668-2.601,0.668-4.151c0-1.491-0.204-2.854-0.619-4.077c-0.416-1.226-1.045-2.272-1.894-3.146
				c-0.841-0.876-1.902-1.556-3.173-2.039c-1.273-0.481-2.765-0.724-4.477-0.724h-5.882v19.841H716.324z"/>
			<path fill="#FF5729" d="M739.829,785.808h19.992v4.604h-14.653v7.769h12.65v4.566h-12.65v7.487h14.848v4.588h-20.187V785.808z"/>
			<path fill="#FF5729" d="M772.834,805.351v9.471h-5.345v-29.014h12.294c1.47,0,2.827,0.243,4.058,0.73
				c1.249,0.495,2.318,1.173,3.216,2.044c0.898,0.862,1.604,1.899,2.103,3.104c0.505,1.201,0.752,2.506,0.752,3.91
				c0,1.438-0.247,2.753-0.738,3.939c-0.497,1.185-1.19,2.213-2.079,3.083c-0.894,0.868-1.961,1.54-3.198,2.018
				c-1.223,0.474-2.566,0.715-4.03,0.715H772.834z M779.589,800.76c0.703,0,1.355-0.13,1.969-0.397
				c0.603-0.259,1.13-0.623,1.575-1.085c0.444-0.457,0.792-1.002,1.048-1.632c0.263-0.627,0.383-1.299,0.383-2.024
				c0-0.73-0.12-1.402-0.383-2.041c-0.256-0.633-0.609-1.181-1.06-1.654c-0.448-0.47-0.979-0.841-1.594-1.118
				c-0.601-0.275-1.261-0.415-1.96-0.415h-6.733v10.367H779.589z"/>
			<path fill="#FF5729" d="M797.411,785.808h5.347v24.426h13.169v4.588h-18.516V785.808z"/>
			<path fill="#FF5729" d="M820.318,800.272c0-1.411,0.187-2.763,0.559-4.052c0.385-1.299,0.911-2.509,1.593-3.633
				c0.686-1.124,1.499-2.146,2.472-3.058c0.957-0.917,2.03-1.709,3.189-2.359c1.169-0.658,2.426-1.157,3.768-1.515
				c1.343-0.355,2.751-0.533,4.207-0.533c1.44,0,2.841,0.178,4.193,0.533c1.35,0.357,2.614,0.856,3.773,1.515
				c1.168,0.65,2.234,1.442,3.195,2.359c0.973,0.912,1.792,1.934,2.485,3.058c0.686,1.124,1.212,2.334,1.588,3.633
				c0.385,1.289,0.567,2.641,0.567,4.052c0,1.41-0.183,2.756-0.567,4.055c-0.376,1.291-0.902,2.499-1.588,3.625
				c-0.693,1.124-1.513,2.146-2.485,3.063c-0.961,0.915-2.027,1.703-3.195,2.365c-1.159,0.662-2.424,1.173-3.773,1.528
				c-1.353,0.353-2.753,0.531-4.193,0.531c-1.456,0-2.864-0.179-4.207-0.531c-1.342-0.355-2.599-0.866-3.768-1.528
				c-1.159-0.662-2.232-1.45-3.189-2.365c-0.973-0.918-1.786-1.939-2.472-3.063c-0.682-1.126-1.208-2.334-1.593-3.625
				C820.505,803.028,820.318,801.683,820.318,800.272z M825.649,800.294c0,1.493,0.284,2.882,0.837,4.167
				c0.548,1.287,1.295,2.405,2.239,3.354c0.941,0.947,2.044,1.687,3.313,2.229c1.266,0.542,2.615,0.81,4.067,0.81
				c1.454,0,2.827-0.268,4.097-0.81s2.379-1.281,3.318-2.229c0.951-0.948,1.693-2.066,2.234-3.354
				c0.544-1.285,0.817-2.674,0.817-4.167c0-1.499-0.273-2.889-0.817-4.184c-0.541-1.293-1.283-2.414-2.234-3.359
				c-0.939-0.945-2.049-1.688-3.318-2.232c-1.27-0.538-2.643-0.81-4.097-0.81c-1.452,0-2.802,0.271-4.067,0.81
				c-1.269,0.545-2.371,1.287-3.313,2.232c-0.944,0.945-1.691,2.066-2.239,3.359C825.934,797.405,825.649,798.795,825.649,800.294z"
				/>
			<path fill="#FF5729" d="M882.135,785.808l-11.5,17.962v11.052h-5.339v-11.028l-11.495-17.985h6.239l7.896,13.12h0.062
				l7.871-13.12H882.135z"/>
			<path fill="#FF5729" d="M907.197,790.393h-8.667v-4.585h22.695v4.585h-8.688v24.429h-5.34V790.393z"/>
			<path fill="#FF5729" d="M928.079,785.808h5.342v12.372h14.719v-12.372h5.393v29.014h-5.393v-12.075h-14.719v12.075h-5.342
				V785.808z"/>
			<path fill="#FF5729" d="M962.683,785.808h20.001v4.604h-14.661v7.769h12.657v4.566h-12.657v7.487h14.847v4.588h-20.187V785.808z"
				/>
			<path fill="#FF5729" d="M1004.33,806.249l-8.645-11.76v20.332h-5.335v-29.014h4.65l10.065,13.419l10.104-13.419h4.674v29.014
				h-5.338v-20.29l-8.733,11.718H1004.33z"/>
			<path fill="#FF5729" d="M1041.39,785.808h20v4.604h-14.653v7.769h12.654v4.566h-12.654v7.487h14.84v4.588h-20.187V785.808z"/>
			<path fill="#FF5729" d="M1089.998,785.783h5.636l-12.245,29.038h-4.851l-12.245-29.038h5.64l9.013,21.934h0.035L1089.998,785.783
				z"/>
			<path fill="#FF5729" d="M1102.063,785.808h19.993v4.604h-14.649v7.769h12.659v4.566h-12.659v7.487h14.848v4.588h-20.191V785.808z
				"/>
			<path fill="#FF5729" d="M1141.244,804.73h-6.168v10.091h-5.35v-29.014h12.598c1.468,0,2.826,0.222,4.065,0.68
				c1.242,0.454,2.305,1.1,3.216,1.929c0.896,0.832,1.602,1.834,2.097,3.001c0.501,1.167,0.751,2.454,0.751,3.866
				c0,1.05-0.14,2.03-0.411,2.945c-0.274,0.922-0.662,1.749-1.159,2.487c-0.513,0.743-1.132,1.392-1.858,1.945
				c-0.721,0.556-1.517,1-2.413,1.344l6.51,10.816h-6.146L1141.244,804.73z M1142.155,800.146c0.706,0,1.353-0.124,1.951-0.354
				c0.6-0.238,1.118-0.563,1.564-0.982c0.443-0.419,0.796-0.93,1.059-1.527c0.246-0.599,0.377-1.261,0.377-1.984
				c0-0.725-0.131-1.385-0.377-1.98c-0.263-0.599-0.615-1.115-1.059-1.55c-0.446-0.437-0.973-0.771-1.584-1.01
				c-0.613-0.25-1.273-0.366-1.973-0.366h-7.038v9.754H1142.155z"/>
			<path fill="#FF5729" d="M1185.326,785.808l-11.494,17.962v11.052h-5.345v-11.028l-11.494-17.985h6.244l7.889,13.12h0.063
				l7.877-13.12H1185.326z"/>
			<path fill="#FF5729" d="M1219.332,807.247h0.07l6.985-21.464h5.664l-10.036,29.038h-5.198l-6.46-20.315l-6.457,20.315h-5.169
				l-10.021-29.038h5.641l6.995,21.464h0.092l6.111-21.271h5.639L1219.332,807.247z"/>
			<path fill="#FF5729" d="M1238.391,785.808h5.348v12.372h14.711v-12.372h5.391v29.014h-5.391v-12.075h-14.711v12.075h-5.348
				V785.808z"/>
			<path fill="#FF5729" d="M1272.992,785.808h19.992v4.604h-14.66v7.769h12.664v4.566h-12.664v7.487h14.851v4.588h-20.183V785.808z"
				/>
			<path fill="#FF5729" d="M1312.178,804.73h-6.181v10.091h-5.339v-29.014h12.589c1.47,0,2.833,0.222,4.066,0.68
				c1.24,0.454,2.307,1.1,3.207,1.929c0.903,0.832,1.607,1.834,2.103,3.001c0.503,1.167,0.752,2.454,0.752,3.866
				c0,1.05-0.138,2.03-0.412,2.945c-0.266,0.922-0.65,1.749-1.159,2.487c-0.513,0.743-1.132,1.392-1.845,1.945
				c-0.726,0.556-1.535,1-2.419,1.344l6.503,10.816h-6.14L1312.178,804.73z M1313.074,800.146c0.701,0,1.355-0.124,1.955-0.354
				c0.603-0.238,1.125-0.563,1.563-0.982c0.446-0.419,0.796-0.93,1.053-1.527c0.258-0.599,0.39-1.261,0.39-1.984
				c0-0.725-0.132-1.385-0.39-1.98c-0.257-0.599-0.606-1.115-1.053-1.55c-0.438-0.437-0.973-0.771-1.584-1.01
				c-0.614-0.25-1.274-0.366-1.973-0.366h-7.039v9.754H1313.074z"/>
			<path fill="#FF5729" d="M1330.812,785.808h19.994v4.604h-14.659v7.769h12.659v4.566h-12.659v7.487H1351v4.588h-20.188V785.808z"
				/>
		</g>
	</g>
</g>
<g>
</g>
<g>
</g>
<g>
</g>
<g>
</g>
<g>
</g>
</svg>
