<?xml version="1.0" encoding="UTF-8" standalone="no"?>
<!-- Generator: Adobe Illustrator 16.0.0, SVG Export Plug-In . SVG Version: 6.00 Build 0)  -->

<svg
   version="1.1"
   id="Layer_1"
   x="0px"
   y="0px"
   width="1000"
   height="1000"
   viewBox="0 0 1000 1000"
   enable-background="new 0 0 1368 936"
   xml:space="preserve"
   sodipodi:docname="dotdrop-1000x1000.svg"
   inkscape:version="1.1 (c4e8f9ed74, 2021-05-24)"
   xmlns:inkscape="http://www.inkscape.org/namespaces/inkscape"
   xmlns:sodipodi="http://sodipodi.sourceforge.net/DTD/sodipodi-0.dtd"
   xmlns="http://www.w3.org/2000/svg"
   xmlns:svg="http://www.w3.org/2000/svg"><defs
   id="defs21" /><sodipodi:namedview
   id="namedview19"
   pagecolor="#ffffff"
   bordercolor="#666666"
   borderopacity="1.0"
   inkscape:pageshadow="2"
   inkscape:pageopacity="0.0"
   inkscape:pagecheckerboard="0"
   showgrid="false"
   inkscape:zoom="0.59314276"
   inkscape:cx="665.10127"
   inkscape:cy="459.41723"
   inkscape:window-width="1890"
   inkscape:window-height="934"
   inkscape:window-x="15"
   inkscape:window-y="73"
   inkscape:window-maximized="1"
   inkscape:current-layer="Layer_1" />
<g
   id="g6"
   transform="matrix(0.90024048,0,0,0.99950083,-115.76449,32.234113)">
	<path
   fill="#ff5729"
   d="m 1059.254,515.111 c -9.283,36.725 -23.872,71.392 -42.848,103.104 l 42.938,103.625 c -21.835,27.145 -46.536,51.833 -73.628,73.684 l -103.69,-42.946 c -31.712,18.979 -66.358,33.521 -103.091,42.827 L 736.066,898.94 c -17.082,1.831 -34.455,2.776 -52.051,2.776 -17.595,0 -34.96,-0.945 -52.06,-2.791 h -0.023 L 589.063,795.404 C 552.34,786.098 517.701,771.555 485.973,752.577 L 382.328,795.523 C 355.222,773.672 330.52,748.984 308.685,721.867 L 351.608,618.199 C 332.625,586.483 318.074,551.836 308.769,515.111 L 205.261,472.224 c -1.846,-17.08 -2.799,-34.458 -2.799,-52.049 0,-17.583 0.953,-34.979 2.799,-52.079 l 103.966,-43.068 c 8.42,-35.203 21.179,-72.844 38.24,-112.857 l 123.529,52.576 c -26.167,61.219 -39.895,114.069 -39.895,155.41 0,139.472 113.469,252.914 252.914,252.914 139.454,0 252.907,-113.442 252.907,-252.914 0,-40.811 -13.362,-92.763 -38.841,-152.948 L 1021.8,215.153 c 16.427,38.907 28.782,75.583 36.987,109.896 l 103.96,43.047 c 1.846,17.099 2.791,34.495 2.791,52.079 0,17.591 -0.945,34.969 -2.791,52.061 z"
   id="path2" />
	<path
   fill="#ff5729"
   d="m 869.854,420.158 c 0,102.479 -83.367,185.86 -185.846,185.86 -102.487,0 -185.861,-83.382 -185.861,-185.86 0,-21.516 5.72,-60.755 32.985,-125.501 23.802,-56.528 58.878,-120.298 104.187,-189.499 15.086,-23.027 31.498,-46.876 48.696,-70.875 16.77,23.38 32.749,46.64 47.842,69.642 45.577,69.495 80.849,133.506 104.812,190.262 27.419,64.995 33.185,104.384 33.185,125.971 z"
   id="path4" />
</g>
<g
   id="g8"
   transform="matrix(0.90024048,0,0,0.99950083,20.197512,0.01711318)">
</g>
<g
   id="g10"
   transform="matrix(0.90024048,0,0,0.99950083,20.197512,0.01711318)">
</g>
<g
   id="g12"
   transform="matrix(0.90024048,0,0,0.99950083,20.197512,0.01711318)">
</g>
<g
   id="g14"
   transform="matrix(0.90024048,0,0,0.99950083,20.197512,0.01711318)">
</g>
<g
   id="g16"
   transform="matrix(0.90024048,0,0,0.99950083,20.197512,0.01711318)">
</g>
</svg>
